<svg xmlns="http://www.w3.org/2000/svg" viewBox="0 0 200 200" height="200mm" width="200mm">
  <defs>
    <clipPath id="b">
      <path fill="red" stroke-width=".991" d="M0 0h755.906v755.906H0z"/>
    </clipPath>
    <clipPath id="a">
      <path fill="red" stroke-width=".579" d="M139.12 139.12h441.71v441.71H139.12z"/>
    </clipPath>
  </defs>
  <g transform="matrix(.4528 0 0 .4528 -62.992 -62.992)" clip-path="url(#a)">
    <path d="M690.01 359.973a330 330 0 0 1-11.245 85.41l-318.756-85.41z" fill="#80ff00"/>
    <path d="M359.973 29.94a330 330 0 0 1 85.41 11.245l-85.41 318.756z" fill="red"/>
    <path d="M445.462 41.197a330.002 330.002 0 0 1 79.59 32.967l-165 285.79z" fill="#ff4000"/>
    <path d="M525.013 74.19a329.997 329.997 0 0 1 68.345 52.44l-233.34 233.347z" fill="#ff8000"/>
    <path d="M593.336 126.654a329.995 329.995 0 0 1 52.442 68.344L359.995 359.995z" fill="#ffc000"/>
    <path d="M645.73 195.022a329.997 329.997 0 0 1 32.967 79.59l-318.753 85.405z" fill="#ff0"/>
    <path d="M678.74 274.607a330.002 330.002 0 0 1 11.245 85.41h-330z" fill="#c0ff00"/>
    <path d="M678.773 445.462a330.002 330.002 0 0 1-32.967 79.59l-285.79-165z" fill="#40ff00"/>
    <path d="M645.808 525.013a329.997 329.997 0 0 1-52.44 68.345L360.02 360.018z" fill="#0f0"/>
    <path d="M593.346 593.336a329.995 329.995 0 0 1-68.344 52.442L360.005 359.995z" fill="#00ff40"/>
    <path d="M524.978 645.73a329.997 329.997 0 0 1-79.59 32.967l-85.405-318.753z" fill="#00ff80"/>
    <path d="M445.413 678.74a330.002 330.002 0 0 1-85.41 11.245v-330z" fill="#00ffc0"/>
    <path d="M360.027 690.01a330 330 0 0 1-85.41-11.245l85.41-318.756z" fill="#0ff"/>
    <path d="M274.538 678.773a330.002 330.002 0 0 1-79.59-32.967l165-285.79z" fill="#00c0ff"/>
    <path d="M194.987 645.808a329.997 329.997 0 0 1-68.345-52.44l233.34-233.347z" fill="#0080ff"/>
    <path d="M126.664 593.346a329.995 329.995 0 0 1-52.442-68.344l285.783-164.997z" fill="#0040ff"/>
    <path d="M74.27 524.978a329.997 329.997 0 0 1-32.967-79.59l318.753-85.405z" fill="#0040ff"/>
    <path d="M41.26 445.413a330.002 330.002 0 0 1-11.245-85.41h330z" fill="#4000ff"/>
    <path d="M29.94 360.027a330 330 0 0 1 11.245-85.41l318.756 85.41z" fill="#8000ff"/>
    <path d="M41.197 274.538a330.002 330.002 0 0 1 32.967-79.59l285.79 165z" fill="#c000ff"/>
    <path d="M74.19 194.987a329.997 329.997 0 0 1 52.44-68.345l233.347 233.34z" fill="#f0f"/>
    <path d="M126.654 126.664a329.995 329.995 0 0 1 68.344-52.442l164.997 285.783z" fill="#ff00c0"/>
    <path d="M195.022 74.27a329.997 329.997 0 0 1 79.59-32.967l85.405 318.753z" fill="#ff0080"/>
    <path d="M274.607 41.26a330.002 330.002 0 0 1 85.41-11.245v330z" fill="#ff0040"/>
  </g>
  <g clip-path="url(#b)" transform="scale(.26458)" stroke-width="1.358" opacity=".5">
    <path d="M377.953 38.834l-96.43 96.432L988.63 842.372l96.43-96.43z"/>
    <path d="M281.523 135.266l-95.668 95.668L892.962 938.04l95.668-95.668z"/>
    <path d="M185.855 230.934H61.475L768.58 938.04h124.382z"/>
    <path d="M61.475 230.934v294.04l707.106 707.105V938.04z"/>
    <path d="M61.475 524.973h128.043l707.106 707.106H768.58z"/>
    <path d="M189.518 524.973l96.052 96.052 707.107 707.107-96.053-96.053z"/>
    <path d="M285.57 621.025L382 717.457l707.107 707.107-96.43-96.432z"/>
    <path d="M382 717.457l96.43-96.432 707.106 707.107-96.43 96.432z"/>
    <path d="M478.43 621.025l96.052-96.052 707.107 707.106-96.054 96.052z"/>
    <path d="M574.482 524.973h119.95l707.106 707.106h-119.95z"/>
    <path d="M694.432 524.973v-294.04l707.106 707.107v294.04z"/>
    <path d="M694.432 230.934H570.05l707.106 707.106h124.382z"/>
    <path d="M570.05 230.934l-95.667-95.668 707.107 707.106 95.666 95.668zM474.383 135.266l-96.43-96.432L1085.06 745.94l96.43 96.432z"/>
  </g>
  <path d="M100 10.275L74.486 35.79 49.174 61.1h-32.91v77.8h33.88l25.413 25.413 25.514 25.514 25.515-25.514 25.413-25.414h31.737V61.1h-32.91l-25.31-25.31z"/>
  <g font-weight="bold" font-family="Hack" letter-spacing="0" word-spacing="0" fill="#fff">
    <path style="line-height:1.25;-inkscape-font-specification:'Hack Bold'" d="M24.417 68.254h18.285q13.905 0 20.09 4.678 6.095 4.678 6.095 15.182 0 10.546-6.095 15.182-6.185 4.678-20.09 4.678h-4.966v23.772h-13.32zm18.78 29.173q6.593 0 9.21-2.084 2.62-2.083 2.62-7.23 0-5.145-2.62-7.23-2.617-2.082-9.21-2.082h-5.46v18.627zM81.097 120.69h12.63V79.31h-12.63V68.255h37.806V79.31h-12.63v41.38h12.63v11.056H81.097zM147.608 99.51l-16.584-31.256h11.874l10.59 20.2 10.627-20.2h11.874L159.48 99.51l16.974 32.236h-11.874l-11.095-21.008-11.057 21.008h-11.873z"/>
  </g>
</svg>
